<svg width="800" height="704" viewBox="0 0 800 704" fill="none" xmlns="http://www.w3.org/2000/svg">
<path d="M155.5 30.5C179.5 28.3334 246.9 29.7 324.5 52.5V62.5L399 113L432.5 83L537.5 22.5L698.5 52.5L768.5 165.5V302.5L399 678.5L141.5 427L42.5 323.5L20.5 212L61.5 95.5L155.5 30.5Z" fill="#FF0000" stroke="#FF0000"/>
<path d="M735.383 65.633C693.492 23.7421 638.033 0.846201 578.843 0.846201C519.653 0.846201 464.024 23.9117 422.133 65.8026L400.255 87.6809L378.038 65.4634C336.147 23.5725 280.349 0.337402 221.159 0.337402C162.138 0.337402 106.51 23.4029 64.7885 65.1242C22.8975 107.015 -0.167938 162.644 0.0016611 221.834C0.0016611 281.024 23.2367 336.483 65.1277 378.373L383.635 696.88C388.044 701.29 393.98 703.664 399.746 703.664C405.513 703.664 411.449 701.459 415.858 697.05L735.044 379.052C776.935 337.161 800 281.532 800 222.342C800.17 163.152 777.274 107.524 735.383 65.633ZM702.82 346.659L399.746 648.545L97.3515 346.15C64.1101 312.908 45.7934 268.813 45.7934 221.834C45.7934 174.855 63.9405 130.759 97.1819 97.6872C130.254 64.6154 174.349 46.2987 221.159 46.2987C268.138 46.2987 312.403 64.6154 345.644 97.8568L383.974 136.186C392.962 145.175 407.378 145.175 416.367 136.186L454.357 98.196C487.599 64.9546 531.864 46.6379 578.673 46.6379C625.483 46.6379 669.578 64.9546 702.82 98.0264C736.061 131.268 754.208 175.364 754.208 222.342C754.378 269.321 736.061 313.417 702.82 346.659Z" fill="black"/>
</svg>
